<svg xmlns="http://www.w3.org/2000/svg" width="1600" height="900" viewBox="0 0 1600 900">
  <defs>
    <linearGradient id="bg" x2="1" y2="1"><stop stop-color="#07111f"/><stop offset="1" stop-color="#111827"/></linearGradient>
    <marker id="a" markerWidth="9" markerHeight="9" refX="8" refY="4.5" orient="auto"><path d="M0 0L9 4.5L0 9Z" fill="#5eead4"/></marker>
    <marker id="p" markerWidth="9" markerHeight="9" refX="8" refY="4.5" orient="auto"><path d="M0 0L9 4.5L0 9Z" fill="#a78bfa"/></marker>
    <style>.title{font:700 25px 'Segoe UI',sans-serif;letter-spacing:5px;fill:#f8fafc}.sub{font:500 13px 'Segoe UI',sans-serif;letter-spacing:2px;fill:#5eead4}.zone{fill:#0f172a;stroke:#334155;stroke-width:2}.zt{font:700 12px 'Segoe UI',sans-serif;letter-spacing:3px;fill:#64748b}.box{fill:#111c2e;stroke-width:2}.h{font:700 18px 'Segoe UI',sans-serif}.t{font:500 12px 'Segoe UI',sans-serif;fill:#cbd5e1}.s{font:500 10px 'Segoe UI',sans-serif;fill:#94a3b8}.blue{stroke:#38bdf8}.red{stroke:#fb7185}.green{stroke:#22c55e}.cyan{stroke:#22d3ee}.purple{stroke:#a78bfa}.amber{stroke:#f59e0b}.hb{fill:#7dd3fc}.hr{fill:#fda4af}.hg{fill:#86efac}.hc{fill:#67e8f9}.hp{fill:#c4b5fd}.ha{fill:#fcd34d}.flow{fill:none;stroke:#5eead4;stroke-width:3;marker-end:url(#a)}.auth{fill:none;stroke:#a78bfa;stroke-width:3;stroke-dasharray:8 6;marker-end:url(#p)}.num{fill:#14b8a6}.nt{font:700 12px 'Segoe UI',sans-serif;fill:#07111f}</style>
  </defs>
  <rect width="1600" height="900" fill="url(#bg)"/><rect x="1" y="1" width="1598" height="898" rx="14" fill="none" stroke="#334155" stroke-width="2"/>
  <circle cx="24" cy="25" r="7" fill="#ff5f56"/><circle cx="46" cy="25" r="7" fill="#ffbd2e"/><circle cx="68" cy="25" r="7" fill="#27c93f"/>
  <text x="800" y="32" text-anchor="middle" class="title">MIRECLOUD · IDENTITY + PRIVATE AI FLOW</text><text x="800" y="60" text-anchor="middle" class="sub">KEYCLOAK OIDC · OPEN WEBUI · VLLM · QWEN2.5 · ZERO CLOUD INFERENCE</text><line x1="0" y1="75" x2="1600" y2="75" stroke="#14b8a6" stroke-width="3"/>
  <rect x="30" y="105" width="300" height="690" rx="14" class="zone"/><text x="180" y="132" text-anchor="middle" class="zt">CLIENT + EDGE</text>
  <rect x="70" y="175" width="220" height="100" rx="10" class="box blue"/><text x="180" y="208" text-anchor="middle" class="h hb">User Browser</text><text x="180" y="234" text-anchor="middle" class="t">HTTPS · PKCE</text><text x="180" y="255" text-anchor="middle" class="s">No local AI credentials</text>
  <rect x="70" y="380" width="220" height="105" rx="10" class="box purple"/><text x="180" y="413" text-anchor="middle" class="h hp">Cilium Gateway</text><text x="180" y="439" text-anchor="middle" class="t">TLS termination</text><text x="180" y="461" text-anchor="middle" class="s">HTTPRoute · internal CA</text>
  <rect x="70" y="595" width="220" height="115" rx="10" class="box amber"/><text x="180" y="628" text-anchor="middle" class="h ha">ExternalDNS + BIND</text><text x="180" y="654" text-anchor="middle" class="t">mirecloud.com</text><text x="180" y="676" text-anchor="middle" class="s">RFC2136 + TSIG</text><text x="180" y="696" text-anchor="middle" class="s">Private split-horizon DNS</text>
  <path d="M180 275V378" class="flow"/><path d="M180 485V593" class="flow"/>

  <rect x="360" y="105" width="420" height="690" rx="14" class="zone"/><text x="570" y="132" text-anchor="middle" class="zt">IDENTITY PLANE</text>
  <rect x="405" y="175" width="330" height="185" rx="10" class="box red"/><text x="570" y="210" text-anchor="middle" class="h hr">Keycloak · mirecloud realm</text><text x="570" y="240" text-anchor="middle" class="t">Central OIDC identity provider</text><text x="570" y="267" text-anchor="middle" class="s">Authorization Code + PKCE</text><text x="570" y="290" text-anchor="middle" class="s">Groups claim → application roles</text><text x="570" y="313" text-anchor="middle" class="s">OpenLDAP user federation</text><text x="570" y="336" text-anchor="middle" class="s">2 replicas · Infinispan sessions</text>
  <rect x="405" y="420" width="155" height="115" rx="10" class="box amber"/><text x="482" y="452" text-anchor="middle" class="h ha">Vault</text><text x="482" y="479" text-anchor="middle" class="t">OIDC secrets</text><text x="482" y="504" text-anchor="middle" class="s">KV v2 · CA</text>
  <rect x="580" y="420" width="155" height="115" rx="10" class="box cyan"/><text x="657" y="452" text-anchor="middle" class="h hc">ESO</text><text x="657" y="479" text-anchor="middle" class="t">Secret sync</text><text x="657" y="504" text-anchor="middle" class="s">Refresh 1m</text>
  <rect x="405" y="590" width="330" height="120" rx="10" class="box green"/><text x="570" y="623" text-anchor="middle" class="h hg">Identity Controls</text><text x="570" y="651" text-anchor="middle" class="t">PKCE · group management · role mapping</text><text x="570" y="676" text-anchor="middle" class="s">Internal CA mounted into relying parties</text><text x="570" y="698" text-anchor="middle" class="s">No client secrets committed to Git</text>
  <path d="M560 477H578" class="flow"/><path d="M657 418V362" class="flow"/>

  <rect x="810" y="105" width="760" height="690" rx="14" class="zone"/><text x="1190" y="132" text-anchor="middle" class="zt">PRIVATE AI DATA PLANE · NODE-GPU</text>
  <rect x="855" y="175" width="280" height="185" rx="10" class="box green"/><text x="995" y="210" text-anchor="middle" class="h hg">Open WebUI</text><text x="995" y="240" text-anchor="middle" class="t">Chart 14.8.0</text><text x="995" y="267" text-anchor="middle" class="s">Keycloak OIDC + groups</text><text x="995" y="290" text-anchor="middle" class="s">Multi-user chat + RAG</text><text x="995" y="313" text-anchor="middle" class="s">Forwards identity headers</text><text x="995" y="336" text-anchor="middle" class="s">NFS-backed persistence</text>
  <rect x="1200" y="175" width="325" height="185" rx="10" class="box cyan"/><text x="1362" y="210" text-anchor="middle" class="h hc">vLLM OpenAI API</text><text x="1362" y="240" text-anchor="middle" class="t">Engine 0.11.0 · stack 0.1.11</text><text x="1362" y="267" text-anchor="middle" class="s">Qwen2.5-14B-Instruct-AWQ</text><text x="1362" y="290" text-anchor="middle" class="s">8192-token context · prefix cache</text><text x="1362" y="313" text-anchor="middle" class="s">AWQ Marlin · eager execution</text><text x="1362" y="336" text-anchor="middle" class="s">OpenAI-compatible /v1 endpoint</text>
  <rect x="855" y="420" width="280" height="120" rx="10" class="box purple"/><text x="995" y="453" text-anchor="middle" class="h hp">RAG API</text><text x="995" y="480" text-anchor="middle" class="t">Per-user document isolation</text><text x="995" y="505" text-anchor="middle" class="s">PostgreSQL + pgvector</text><text x="995" y="527" text-anchor="middle" class="s">Identity-aware retrieval</text>
  <rect x="1200" y="420" width="325" height="120" rx="10" class="box blue"/><text x="1362" y="453" text-anchor="middle" class="h hb">NVIDIA RTX 5060 Ti · 16 GB</text><text x="1362" y="480" text-anchor="middle" class="t">Proxmox VE 9 GPU passthrough</text><text x="1362" y="505" text-anchor="middle" class="s">Blackwell sm_120 · CUDA</text><text x="1362" y="527" text-anchor="middle" class="s">Persistent JIT and model cache</text>
  <rect x="855" y="590" width="670" height="120" rx="10" class="box amber"/><text x="1190" y="623" text-anchor="middle" class="h ha">Privacy Boundary</text><text x="1190" y="651" text-anchor="middle" class="t">Prompts, documents, embeddings and inference remain on MireCloud infrastructure</text><text x="1190" y="678" text-anchor="middle" class="s">No cloud inference · internal service DNS · TLS at the edge · Vault-managed credentials</text>
  <path d="M1135 267H1198" class="flow"/><path d="M995 360V418" class="flow"/><path d="M1362 360V418" class="flow"/>
  <path d="M290 220H403" class="auth"/><circle cx="338" cy="205" r="14" class="num"/><text x="338" y="210" text-anchor="middle" class="nt">1</text>
  <path d="M735 267H853" class="auth"/><circle cx="794" cy="250" r="14" class="num"/><text x="794" y="255" text-anchor="middle" class="nt">2</text>
  <path d="M855 330H737" class="auth"/><circle cx="794" cy="347" r="14" class="num"/><text x="794" y="352" text-anchor="middle" class="nt">3</text>
  <text x="800" y="835" text-anchor="middle" class="t">1 · Browser redirects to Keycloak   ·   2 · Authorization code returns to Open WebUI   ·   3 · Token and groups establish the session</text>
  <text x="800" y="872" text-anchor="middle" class="sub">AUTHENTICATE CENTRALLY · INFER LOCALLY · KEEP DATA PRIVATE</text>
</svg>
